<svg width="36" height="40" viewBox="0 0 36 40" fill="none" xmlns="http://www.w3.org/2000/svg">
<path d="M6.38362 10.6245C6.17062 10.7847 5.90657 10.9073 5.59162 10.9922C5.28591 11.0676 4.96163 11.1053 4.61886 11.1053C3.72957 11.1053 3.03944 10.8743 2.5484 10.4124C2.06668 9.95048 1.82587 9.27176 1.82587 8.37622V5.25118H0.672516V3.55435H1.82587V1.70197H3.99362V3.55435H5.85559V5.25118H3.99362V8.34791C3.99362 8.66849 4.07234 8.91821 4.22978 9.09732C4.39654 9.26702 4.62819 9.35187 4.92457 9.35187C5.26734 9.35187 5.55914 9.25761 5.80003 9.06909L6.38362 10.6245ZM11.4496 3.27149C12.376 3.27149 13.1217 3.55435 13.6868 4.1199C14.2612 4.68554 14.5484 5.52455 14.5484 6.63692V10.9922H12.3806V6.97632C12.3806 6.37296 12.2509 5.92523 11.9916 5.63296C11.7322 5.33128 11.357 5.18048 10.866 5.18048C10.3194 5.18048 9.88402 5.35485 9.55982 5.70366C9.23555 6.04305 9.07345 6.55207 9.07345 7.23079V10.9922H6.90577V0.5H9.07345V4.17652C9.36058 3.88425 9.70801 3.66276 10.1157 3.51188C10.5233 3.35167 10.9679 3.27149 11.4496 3.27149ZM23.2229 7.21671C23.2229 7.24495 23.209 7.44295 23.1813 7.81058H17.5257C17.6276 8.28188 17.8685 8.65433 18.2483 8.9277C18.6281 9.20107 19.1005 9.33772 19.6657 9.33772C20.0548 9.33772 20.3975 9.28118 20.6939 9.1681C20.9996 9.04553 21.2822 8.85701 21.5416 8.60246L22.6949 9.87504C21.9909 10.6952 20.9625 11.1053 19.61 11.1053C18.7671 11.1053 18.0214 10.9403 17.3729 10.6104C16.7244 10.271 16.2241 9.80435 15.8721 9.21048C15.5201 8.61661 15.3441 7.94256 15.3441 7.18841C15.3441 6.44366 15.5154 5.77435 15.8582 5.18048C16.2102 4.57713 16.6873 4.11049 17.2895 3.78059C17.9009 3.44119 18.5818 3.27149 19.3321 3.27149C20.064 3.27149 20.7263 3.43178 21.3192 3.75228C21.9121 4.07277 22.3753 4.53474 22.7088 5.13802C23.0516 5.73197 23.2229 6.42484 23.2229 7.21671ZM19.3461 4.94009C18.8551 4.94009 18.4428 5.08148 18.1093 5.36426C17.7758 5.64712 17.572 6.03357 17.4979 6.52384H21.1803C21.1062 6.04305 20.9023 5.66127 20.5689 5.37841C20.2353 5.08615 19.8278 4.94009 19.3461 4.94009ZM9.1767 14.6404V25.1325H7.10623V24.2559C6.56888 24.9158 5.79078 25.2457 4.77171 25.2457C4.06768 25.2457 3.42852 25.0854 2.8541 24.7649C2.28901 24.4444 1.84436 23.9872 1.52016 23.3933C1.19596 22.7994 1.03378 22.1112 1.03378 21.3288C1.03378 20.5464 1.19596 19.8582 1.52016 19.2643C1.84436 18.6704 2.28901 18.2132 2.8541 17.8927C3.42852 17.5722 4.06768 17.4119 4.77171 17.4119C5.7259 17.4119 6.47166 17.7183 7.00894 18.3311V14.6404H9.1767ZM5.14689 23.4357C5.69349 23.4357 6.14739 23.2472 6.50873 22.8701C6.87 22.4836 7.05067 21.9698 7.05067 21.3288C7.05067 20.6878 6.87 20.1788 6.50873 19.8016C6.14739 19.4151 5.69349 19.2219 5.14689 19.2219C4.59112 19.2219 4.13256 19.4151 3.77122 19.8016C3.40995 20.1788 3.22936 20.6878 3.22936 21.3288C3.22936 21.9698 3.40995 22.4836 3.77122 22.8701C4.13256 23.2472 4.59112 23.4357 5.14689 23.4357ZM13.5036 17.4119C14.6615 17.4119 15.5509 17.6947 16.1715 18.2604C16.7922 18.8165 17.1026 19.6603 17.1026 20.7915V25.1325H15.0737V24.1851C14.6662 24.8921 13.9066 25.2457 12.7949 25.2457C12.2205 25.2457 11.7202 25.1467 11.2942 24.9488C10.8773 24.7508 10.5577 24.4774 10.3353 24.1286C10.113 23.7798 10.0019 23.3838 10.0019 22.9408C10.0019 22.2338 10.2612 21.6776 10.78 21.2722C11.3081 20.8669 12.1187 20.6642 13.2118 20.6642H14.9348C14.9348 20.1834 14.7912 19.8158 14.5041 19.5613C14.2169 19.2973 13.7861 19.1653 13.2118 19.1653C12.8134 19.1653 12.4197 19.2313 12.0306 19.3632C11.6508 19.4858 11.3266 19.6555 11.0579 19.8723L10.2798 18.3311C10.6873 18.0388 11.1737 17.8125 11.7388 17.6523C12.3132 17.4921 12.9014 17.4119 13.5036 17.4119ZM13.3368 23.761C13.7073 23.761 14.0362 23.6761 14.3234 23.5064C14.6105 23.3273 14.8144 23.0681 14.9348 22.7287V21.951H13.448C12.5586 21.951 12.114 22.2479 12.114 22.8418C12.114 23.1246 12.2205 23.3509 12.4336 23.5206C12.6559 23.6808 12.957 23.761 13.3368 23.761ZM22.7885 17.4119C23.4833 17.4119 24.1132 17.5769 24.6783 17.9068C25.2527 18.2274 25.7019 18.6845 26.0262 19.2785C26.3504 19.8629 26.5125 20.5464 26.5125 21.3288C26.5125 22.1112 26.3504 22.7994 26.0262 23.3933C25.7019 23.9778 25.2527 24.435 24.6783 24.7649C24.1132 25.0854 23.4833 25.2457 22.7885 25.2457C21.8343 25.2457 21.0839 24.9393 20.5374 24.3266V27.8758H18.3697V17.525H20.4401V18.4018C20.9774 17.7419 21.7602 17.4119 22.7885 17.4119ZM22.4133 23.4357C22.9691 23.4357 23.423 23.2472 23.7751 22.8701C24.1364 22.4836 24.317 21.9698 24.317 21.3288C24.317 20.6878 24.1364 20.1788 23.7751 19.8016C23.423 19.4151 22.9691 19.2219 22.4133 19.2219C21.8575 19.2219 21.3989 19.4151 21.0377 19.8016C20.6856 20.1788 20.5096 20.6878 20.5096 21.3288C20.5096 21.9698 20.6856 22.4836 21.0377 22.8701C21.3989 23.2472 21.8575 23.4357 22.4133 23.4357ZM31.6878 17.4119C32.3825 17.4119 33.0123 17.5769 33.5779 17.9068C34.1518 18.2274 34.6012 18.6845 34.9253 19.2785C35.2493 19.8629 35.4121 20.5464 35.4121 21.3288C35.4121 22.1112 35.2493 22.7994 34.9253 23.3933C34.6012 23.9778 34.1518 24.435 33.5779 24.7649C33.0123 25.0854 32.3825 25.2457 31.6878 25.2457C30.7333 25.2457 29.9828 24.9393 29.4363 24.3266V27.8758H27.2689V17.525H29.3392V18.4018C29.8765 17.7419 30.6591 17.4119 31.6878 17.4119ZM31.3126 23.4357C31.8682 23.4357 32.3222 23.2472 32.6745 22.8701C33.0352 22.4836 33.2164 21.9698 33.2164 21.3288C33.2164 20.6878 33.0352 20.1788 32.6745 19.8016C32.3222 19.4151 31.8682 19.2219 31.3126 19.2219C30.757 19.2219 30.2984 19.4151 29.9369 19.8016C29.5846 20.1788 29.4088 20.6878 29.4088 21.3288C29.4088 21.9698 29.5846 22.4836 29.9369 22.8701C30.2984 23.2472 30.757 23.4357 31.3126 23.4357ZM1.56181 28.7808H3.72957V39.2729H1.56181V28.7808ZM5.04662 31.6654H7.2143V39.2729H5.04662V31.6654ZM6.1305 30.6049C5.73216 30.6049 5.40789 30.4871 5.15775 30.2513C4.90768 30.0157 4.78257 29.7235 4.78257 29.3747C4.78257 29.0259 4.90768 28.7337 5.15775 28.498C5.40789 28.2622 5.73216 28.1445 6.1305 28.1445C6.52883 28.1445 6.85303 28.2576 7.10318 28.4838C7.35332 28.7101 7.47835 28.9929 7.47835 29.3322C7.47835 29.6999 7.35332 30.0063 7.10318 30.2513C6.85303 30.4871 6.52883 30.6049 6.1305 30.6049ZM11.0465 39.3861C10.4258 39.3861 9.81906 39.3107 9.22622 39.1598C8.63331 38.9996 8.16084 38.8016 7.80882 38.566L8.53143 36.9822C8.86488 37.199 9.26787 37.3782 9.74034 37.5195C10.2128 37.6515 10.676 37.7175 11.1299 37.7175C12.047 37.7175 12.5056 37.4866 12.5056 37.0246C12.5056 36.8078 12.3805 36.6523 12.1304 36.558C11.8803 36.4637 11.4958 36.3836 10.9771 36.3176C10.3657 36.2233 9.86071 36.115 9.46246 35.9924C9.06405 35.8698 8.71669 35.653 8.42023 35.3419C8.13302 35.0308 7.98949 34.5878 7.98949 34.0127C7.98949 33.5319 8.12377 33.1078 8.39249 32.7401C8.67038 32.363 9.06871 32.0708 9.58749 31.8634C10.1155 31.656 10.7362 31.5523 11.4495 31.5523C11.9776 31.5523 12.5009 31.6135 13.0197 31.7361C13.5477 31.8493 13.9831 32.0095 14.3259 32.2169L13.6033 33.7865C12.9456 33.4094 12.2276 33.2208 11.4495 33.2208C10.9863 33.2208 10.6389 33.2869 10.4073 33.4189C10.1757 33.5508 10.06 33.7205 10.06 33.9279C10.06 34.1636 10.185 34.3285 10.4351 34.4228C10.6853 34.5171 11.0835 34.6066 11.6301 34.6914C12.2415 34.7951 12.7418 34.9083 13.1309 35.0308C13.52 35.144 13.8581 35.3561 14.1452 35.6672C14.4324 35.9783 14.5761 36.4119 14.5761 36.9681C14.5761 37.4394 14.4371 37.8589 14.1592 38.2266C13.8813 38.5942 13.4736 38.8817 12.9363 39.0891C12.4083 39.2871 11.7783 39.3861 11.0465 39.3861ZM20.0405 38.9053C19.8275 39.0656 19.5634 39.1881 19.2485 39.2729C18.9428 39.3484 18.6186 39.3861 18.2757 39.3861C17.3864 39.3861 16.6963 39.1552 16.2053 38.6932C15.7235 38.2312 15.4827 37.5525 15.4827 36.657V33.5319H14.3294V31.8351H15.4827V29.9827H17.6505V31.8351H19.5124V33.5319H17.6505V36.6287C17.6505 36.9492 17.7292 37.199 17.8867 37.3782C18.0534 37.5479 18.285 37.6327 18.5814 37.6327C18.9243 37.6327 19.2161 37.5384 19.4569 37.3498L20.0405 38.9053ZM21.5181 39.3861C21.1383 39.3861 20.8187 39.2541 20.5593 38.9901C20.2999 38.7262 20.1702 38.3963 20.1702 38.0003C20.1702 37.5949 20.2999 37.2697 20.5593 37.0246C20.8187 36.7701 21.1383 36.6428 21.5181 36.6428C21.8979 36.6428 22.2175 36.7701 22.4769 37.0246C22.7363 37.2697 22.866 37.5949 22.866 38.0003C22.866 38.3963 22.7363 38.7262 22.4769 38.9901C22.2175 39.2541 21.8979 39.3861 21.5181 39.3861Z" fill="black"/>
</svg>
