<svg width="40" height="40" viewBox="0 0 40 40" fill="none" xmlns="http://www.w3.org/2000/svg">
<path d="M34.8381 2.50613C31.6477 2.50613 29.9564 4.25352 23.6525 5.22428C23.6525 5.22428 23.0374 4.80446 21.2308 4.64184C19.4242 4.47914 18.4248 4.75826 18.4248 4.75826C14.504 4.21464 10.2757 0.5 7.75557 0.5C6.31661 0.758671 4.85586 3.55451 4.7092 4.98147C5.20184 4.60373 11.3548 3.62784 14.8547 5.72909C18.3546 7.83027 19.9623 11.9032 20.0213 13.538C20.0213 13.538 21.1539 8.91317 26.6122 6.66104C32.0705 4.40883 36.9522 6.66104 36.9522 6.66104C36.9522 4.21464 34.8381 2.50613 34.8381 2.50613ZM19.7752 15.1715C19.7657 15.2113 17.7882 20.2136 12.6205 22.6593C7.45293 25.1052 1.97841 23.14 1.97841 23.14C1.97841 23.14 2.01144 26.5813 3.77959 29.8431C5.54782 33.1049 8.57432 34.844 8.57432 34.844C8.69981 34.6193 9.58385 33.4544 11.1584 33.8878C12.733 34.3213 12.6205 35.4736 12.6205 35.6289C12.6974 35.5124 13.889 34.464 15.2344 35.0076C16.5797 35.5513 16.8488 36.6385 16.8488 37.8035C16.8488 36.6385 17.5791 35.4347 18.6938 35.1629C19.8085 34.8911 20.7596 35.4225 20.9679 35.5516C21.0262 35.5309 21.6921 33.765 23.5371 33.9204C25.3822 34.0757 25.7307 36.0419 25.7307 36.1286C25.7307 36.1286 28.1504 36.0951 31.7688 32.27C35.3872 28.4448 35.8106 25.1149 35.8106 25.1149C35.8106 25.1149 30.4985 26.1367 25.7307 23.5595C20.9628 20.9823 19.7263 15.3213 19.7752 15.1715ZM18.733 21.3388L21.5006 23.0473C21.4621 24.5617 18.7865 27.5094 18.1949 28.4448C17.8399 27.6289 15.9654 24.2899 15.8994 22.9162C16.0177 22.7967 18.3576 21.5587 18.733 21.3388Z" fill="black"/>
<path fill-rule="evenodd" clip-rule="evenodd" d="M33.1586 22.0512C37.3016 21.0101 39.8929 17.0502 38.9463 13.2066C37.9998 9.36291 33.874 7.09111 29.7309 8.13224C25.588 9.17346 22.9967 13.1333 23.9432 16.977C24.8897 20.8206 29.0156 23.0924 33.1586 22.0512ZM31.3014 15.1006C32.6824 14.7535 33.5462 13.4336 33.2307 12.1524C32.9152 10.8712 31.5399 10.1139 30.1589 10.461C28.7779 10.808 27.9142 12.128 28.2297 13.4092C28.5452 14.6904 29.9205 15.4477 31.3014 15.1006Z" fill="black"/>
<path fill-rule="evenodd" clip-rule="evenodd" d="M9.88498 21.0151C14.0279 19.9739 16.6192 16.014 15.6727 12.1704C14.7262 8.32681 10.6003 6.05492 6.4573 7.09614C2.31434 8.13727 -0.27696 12.0972 0.669592 15.9408C1.61607 19.7844 5.74194 22.0563 9.88498 21.0151ZM10.6445 14.6225C12.0255 14.2755 12.8892 12.9555 12.5737 11.6744C12.2583 10.3931 10.883 9.63587 9.50197 9.98289C8.12098 10.33 7.25719 11.6499 7.57268 12.9312C7.88825 14.2123 9.26354 14.9696 10.6445 14.6225Z" fill="black"/>
<path d="M18.9469 39.1868C18.9469 39.1868 17.9855 38.0121 18.8586 37.0146C19.7316 36.0172 20.8849 36.8266 21.0002 36.9491C21.0879 37.0424 21.2142 37.1433 21.3038 36.8266C21.3998 36.4871 22.307 35.5124 23.5755 36.0172C24.8439 36.522 24.8439 37.9588 24.5364 38.6577C24.3828 38.7742 23.5755 39.1868 21.8074 39.3179C20.0393 39.4489 19.1551 39.2402 18.9469 39.1868Z" fill="black"/>
<path d="M14.4588 39.2125C14.4588 39.2125 15.4202 38.0377 14.5472 37.0403C13.6741 36.0429 12.5209 36.8522 12.4056 36.9748C12.3179 37.068 12.1915 37.169 12.1019 36.8522C12.0059 36.5128 11.0987 35.5381 9.83029 36.0429C8.56178 36.5476 8.56178 37.9844 8.86926 38.6834C9.02293 38.7999 9.83029 39.2125 11.5984 39.3435C13.3664 39.4745 14.2506 39.2659 14.4588 39.2125Z" fill="black"/>
</svg>
